<svg xmlns="http://www.w3.org/2000/svg" viewBox="0 0 95 88">
  <path fill="#FFD21E" d="M47.21,0A19.1,19.1,0,0,0,42.6.61C35,3.15,26.67,11.34,20,18.86l-.19.21A38.63,38.63,0,0,0,10.5,36.62a51.16,51.16,0,0,0-.75,14.74,44.57,44.57,0,0,0,5.18,16.11,37.25,37.25,0,0,0,12.55,13,36.29,36.29,0,0,0,9.43,4.19A31.54,31.54,0,0,0,47.5,86.5a31.54,31.54,0,0,0,10.59-1.79,36.29,36.29,0,0,0,9.43-4.19,37.25,37.25,0,0,0,12.55-13,44.57,44.57,0,0,0,5.18-16.11,51.16,51.16,0,0,0-.75-14.74A38.63,38.63,0,0,0,75.19,19.07l-.19-.21C68.33,11.34,60,3.15,52.4.61A19.1,19.1,0,0,0,47.79,0ZM38.5,27.75A9.25,9.25,0,1,1,29.25,37,9.25,9.25,0,0,1,38.5,27.75Zm18,0A9.25,9.25,0,1,1,47.25,37,9.25,9.25,0,0,1,56.5,27.75ZM47.5,50.5c5.52,0,10,3.73,10,8.33s-4.48,8.34-10,8.34-10-3.74-10-8.34S42,50.5,47.5,50.5Z"/>
</svg>
